<svg xmlns="http://www.w3.org/2000/svg" xmlns:xlink="http://www.w3.org/1999/xlink" width="50" zoomAndPan="magnify" viewBox="0 0 37.5 37.499999" height="50" preserveAspectRatio="xMidYMid meet" version="1.0"><defs><clipPath id="c3fcf3ffaf"><path d="M 0.738281 6 L 9 6 L 9 31 L 0.738281 31 Z M 0.738281 6 " clip-rule="nonzero"/></clipPath><clipPath id="130fb3646c"><path d="M 9 0.738281 L 37.007812 0.738281 L 37.007812 37.007812 L 9 37.007812 Z M 9 0.738281 " clip-rule="nonzero"/></clipPath></defs><g clip-path="url(#c3fcf3ffaf)"><path fill="#000000" d="M 7.128906 25.917969 C 7.210938 25.523438 7.3125 25.128906 7.429688 24.742188 C 7.484375 24.550781 7.542969 24.355469 7.609375 24.164062 C 7.703125 24.328125 7.789062 24.492188 7.875 24.660156 L 8.039062 24.984375 C 8.09375 25.09375 8.152344 25.207031 8.210938 25.316406 C 8.257812 25.0625 8.246094 24.804688 8.210938 24.550781 C 8.046875 23.421875 7.433594 23.113281 6.664062 22.433594 C 5.773438 21.640625 5.042969 20.582031 4.476562 19.542969 C 3.355469 17.472656 2.820312 15.070312 3.042969 12.71875 C 3.242188 10.605469 4.042969 8.570312 5.285156 6.851562 C 2.457031 10.050781 0.738281 14.253906 0.738281 18.859375 C 0.738281 23.164062 2.242188 27.121094 4.746094 30.230469 C 5.363281 29.722656 5.894531 29.109375 6.3125 28.429688 C 6.84375 27.589844 6.929688 26.863281 7.128906 25.917969 Z M 7.128906 25.917969 " fill-opacity="1" fill-rule="nonzero"/></g><g clip-path="url(#130fb3646c)"><path fill="#000000" d="M 37.007812 18.871094 C 37.007812 8.859375 28.886719 0.738281 18.875 0.738281 C 15.3125 0.738281 11.996094 1.765625 9.191406 3.539062 C 8.851562 4.921875 9.105469 6.445312 9.878906 7.640625 C 11.074219 9.488281 11.980469 11.53125 12.550781 13.65625 C 12.796875 14.578125 12.957031 15.523438 13.210938 16.441406 C 13.46875 17.367188 13.855469 18.210938 14.363281 19.023438 C 14.042969 18.234375 13.792969 17.414062 13.621094 16.582031 C 13.566406 16.304688 13.476562 15.871094 13.476562 15.871094 C 13.476562 15.871094 13.683594 15.441406 13.75 15.300781 C 14.371094 13.964844 14.929688 12.601562 15.570312 11.277344 C 16.257812 9.867188 17.027344 8.582031 18.03125 7.386719 C 19.871094 5.207031 22.589844 3.792969 25.441406 3.597656 C 24.402344 4.8125 24.191406 6.175781 23.890625 7.679688 C 23.765625 8.328125 23.660156 8.984375 23.554688 9.621094 C 23.304688 11.136719 23.054688 12.707031 22.519531 14.15625 C 21.925781 15.765625 20.976562 17.082031 19.847656 17.902344 C 19.796875 17.871094 19.738281 17.839844 19.6875 17.804688 C 19.613281 17.757812 19.53125 17.714844 19.453125 17.667969 C 19.371094 17.628906 19.296875 17.582031 19.214844 17.542969 L 18.972656 17.425781 C 18.644531 17.273438 18.304688 17.144531 17.960938 17.042969 C 17.617188 16.941406 17.265625 16.859375 16.910156 16.816406 C 16.558594 16.769531 16.199219 16.75 15.839844 16.769531 C 16.183594 16.867188 16.515625 16.960938 16.851562 17.074219 C 17.179688 17.183594 17.5 17.308594 17.820312 17.441406 C 17.894531 17.476562 17.976562 17.511719 18.058594 17.546875 C 18.136719 17.582031 18.214844 17.621094 18.289062 17.660156 L 18.40625 17.714844 L 18.515625 17.773438 C 18.59375 17.816406 18.667969 17.851562 18.746094 17.890625 C 19.046875 18.050781 19.339844 18.222656 19.625 18.410156 C 20.765625 19.160156 21.738281 20.160156 22.453125 21.316406 C 22.542969 21.460938 22.625 21.609375 22.707031 21.753906 C 22.78125 21.90625 22.863281 22.054688 22.933594 22.210938 C 23.007812 22.363281 23.070312 22.519531 23.132812 22.675781 C 23.195312 22.832031 23.253906 22.992188 23.300781 23.15625 C 23.511719 23.792969 23.625 24.472656 23.769531 25.171875 C 23.847656 25.519531 23.925781 25.871094 24.042969 26.226562 C 24.160156 26.578125 24.300781 26.929688 24.5 27.257812 C 24.519531 27.296875 24.550781 27.335938 24.574219 27.378906 L 24.65625 27.5 C 24.679688 27.539062 24.710938 27.574219 24.742188 27.617188 C 24.769531 27.652344 24.796875 27.691406 24.828125 27.730469 C 24.886719 27.800781 24.949219 27.878906 25.007812 27.945312 L 25.101562 28.050781 L 25.195312 28.152344 C 25.449219 28.414062 25.707031 28.652344 25.9375 28.898438 C 26.175781 29.140625 26.378906 29.386719 26.523438 29.652344 C 26.542969 29.679688 26.554688 29.71875 26.574219 29.753906 L 26.601562 29.804688 L 26.625 29.851562 C 26.652344 29.925781 26.679688 29.988281 26.695312 30.058594 C 26.742188 30.195312 26.757812 30.34375 26.761719 30.488281 C 26.761719 30.566406 26.761719 30.636719 26.757812 30.710938 L 26.75 30.769531 L 26.75 30.796875 L 26.746094 30.828125 L 26.726562 30.9375 C 26.722656 30.976562 26.710938 31.015625 26.699219 31.050781 C 26.691406 31.085938 26.6875 31.125 26.671875 31.160156 C 26.644531 31.234375 26.625 31.308594 26.59375 31.378906 C 26.539062 31.527344 26.46875 31.660156 26.394531 31.796875 C 26.347656 31.863281 26.3125 31.933594 26.261719 31.996094 C 26.234375 32.027344 26.214844 32.0625 26.191406 32.089844 L 26.113281 32.183594 C 26.105469 32.199219 26.089844 32.210938 26.078125 32.226562 L 26.039062 32.273438 L 25.957031 32.359375 L 25.871094 32.441406 L 25.832031 32.480469 L 25.785156 32.519531 L 25.695312 32.601562 L 25.601562 32.675781 C 25.539062 32.726562 25.46875 32.777344 25.40625 32.828125 C 25.140625 33.019531 24.855469 33.1875 24.554688 33.339844 C 24.257812 33.492188 23.9375 33.628906 23.621094 33.757812 C 23.300781 33.890625 22.96875 34.015625 22.644531 34.148438 C 21.992188 34.398438 21.347656 34.648438 20.683594 34.84375 C 18.582031 35.484375 16.363281 35.238281 14.585938 33.847656 C 14.992188 34.410156 15.457031 34.859375 16.269531 35.1875 C 15.980469 35.84375 16.476562 36.425781 16.992188 36.910156 C 17.609375 36.976562 18.234375 37.007812 18.867188 37.007812 C 28.886719 37 37.007812 28.882812 37.007812 18.871094 Z M 37.007812 18.871094 " fill-opacity="1" fill-rule="nonzero"/></g><path fill="#000000" d="M 16.695312 26.308594 C 17.121094 26.59375 17.636719 26.730469 18.148438 26.8125 C 18.578125 26.878906 19.066406 26.9375 19.324219 27.296875 C 19.640625 26.6875 19.566406 25.921875 19.234375 25.328125 C 18.902344 24.730469 18.332031 24.285156 17.699219 24.011719 C 17.371094 23.871094 16.414062 23.441406 16.070312 23.648438 C 15.75 23.839844 15.835938 24.746094 15.863281 25.054688 C 15.921875 25.5625 16.265625 26.019531 16.695312 26.308594 Z M 16.695312 26.308594 " fill-opacity="1" fill-rule="nonzero"/></svg>